<?xml version="1.0" encoding="UTF-8"?>
<!DOCTYPE svg PUBLIC "-//W3C//DTD SVG 1.1//EN" "http://www.w3.org/Graphics/SVG/1.1/DTD/svg11.dtd">
<!-- Creator: CorelDRAW -->
<svg xmlns="http://www.w3.org/2000/svg" xml:space="preserve" width="2168px" height="264px" version="1.1" style="shape-rendering:geometricPrecision; text-rendering:geometricPrecision; image-rendering:optimizeQuality; fill-rule:evenodd; clip-rule:evenodd"
viewBox="0 0 2168 264.08"
 xmlns:xlink="http://www.w3.org/1999/xlink"
 xmlns:xodm="http://www.corel.com/coreldraw/odm/2003">
 <defs>
  <style type="text/css">
   <![CDATA[
    .fil0 {fill:#3C3C3C;fill-rule:nonzero}
   ]]>
  </style>
 </defs>
 <g id="Слой_x0020_1">
  <metadata id="CorelCorpID_0Corel-Layer"/>
  <path id="body1" class="fil0" d="M9.03 10.95l0 192.15 125.25 0 0 -19.53 -101.81 0 0 -172.62 -23.44 0zm156.9 0l0 192.15 23.53 0 0 -192.15 -23.53 0zm72.16 0l0 192.15 23.43 0 0 -62.37 18.07 -19.75 64.62 82.12 33 0 -80.44 -98.31 85.41 -93.84 -27.53 0 -93.13 102.22 0 -102.22 -23.43 0 0 0zm214.49 0l-67.65 192.15 25.09 0 22.16 -67.93 69.31 0 22.37 67.93 25.37 0 -64.9 -192.15 -31.75 0 0 0zm15.34 18.94l27.22 85.75 -56.43 0 29.21 -85.75z"/>
  <path id="body2" class="fil0" d="M767.26 11.95l0 189.4 21.59 0 0 -59.65c0,-21.69 3.5,-37.31 10.53,-47.06 7.03,-9.78 16.31,-14.75 27.85,-15.13 9.74,-0.22 16.99,2.35 21.87,7.41 5.06,4.97 7.91,11.72 8.59,20.22 0.28,4.59 0.47,11.12 0.47,19.44l0 74.77 21.6 0 0 -76.24c0,-10.94 -0.22,-18.75 -0.5,-23.35 -1.07,-12.09 -5.66,-21.78 -13.88,-28.9 -8.19,-7.13 -19.41,-10.75 -33.56,-10.75 -13.59,0 -25.09,3.72 -34.69,11.25l-8.28 15.62 0 -77.06 -21.59 0 0 0.03 0 0zm1042 0l0 189.4 21.56 0 0 -59.65c0,-21.69 3.53,-37.31 10.53,-47.06 7.03,-9.78 16.31,-14.75 27.84,-15.13 9.75,-0.22 17,2.35 21.88,7.41 4.97,4.97 7.81,11.72 8.5,20.22 0.37,4.59 0.47,11.12 0.47,19.44l0 74.77 21.59 0 0 -76.24c0,-10.94 -0.09,-18.75 -0.5,-23.35 -0.97,-12.09 -5.56,-21.78 -13.75,-28.9 -8.22,-7.13 -19.43,-10.75 -33.59,-10.75 -13.59,0 -25.09,3.72 -34.66,11.25l-8.31 15.62 0 -77.06 -21.56 0 0 0.03 0 0zm-1185.53 12.78l0 176.62 21.6 0 0 -72.15 32.12 0c9.84,0 17.37,-0.41 22.56,-1.06 13.06,-1.69 23.81,-6.94 32.12,-15.85 8.57,-9.06 12.88,-20.78 12.88,-35.34 0,-14.62 -4.09,-26.34 -12.09,-35.03 -7.82,-8.9 -18.85,-14.25 -32.91,-16.12 -5.19,-0.69 -12.72,-1.07 -22.56,-1.07l-53.72 0 0 0zm443.68 10.53l0 31.44 -17.78 0 0 16.91 17.78 0 0 79.09c0,8.87 0.09,14.53 0.28,16.87 0.68,8.41 3.12,14.47 7.22,18.16 4.4,3.81 10.75,5.69 19.15,5.69 7.03,0 13.09,-0.5 18.25,-1.29l0 -16.12c-8.5,1 -14.34,0.59 -17.56,-1.25 -3.13,-1.97 -5,-6.06 -5.47,-12.59 -0.22,-2.35 -0.31,-5.88 -0.31,-10.47l0 -78.09 24.9 0 0 -16.91 -24.9 0 0 -31.44 -21.56 0 0 0 0 0zm-422.08 7.91l34.15 0c8.78,0 15.25,0.41 19.34,1.28 15.35,3.63 23.03,14.44 23.03,32.5 0,18.06 -7.68,28.91 -23.03,32.53 -4.09,0.88 -10.56,1.28 -19.34,1.28l-34.15 0 0 -67.59 0 0 0 0zm325.7 18.94c-21.37,0 -37.78,6.84 -49.21,20.53 -11.13,13.47 -16.78,30.43 -16.78,50.84 0,20.53 5.65,37.59 16.78,51.28 11.43,13.47 27.84,20.22 49.21,20.22 21.47,0 37.78,-6.75 49,-20.22 11.35,-13.69 17,-30.75 17,-51.28 0,-20.4 -5.65,-37.37 -17,-50.84 -11.22,-13.69 -27.53,-20.53 -49,-20.53zm222.43 0c-21.49,0 -37.9,6.84 -49.21,20.53 -11.25,13.47 -16.82,30.43 -16.82,50.84 0,20.53 5.57,37.59 16.82,51.28 11.31,13.47 27.72,20.22 49.21,20.22 21.38,0 37.69,-6.75 48.91,-20.22 11.31,-13.69 17.09,-30.75 17.09,-51.28 0,-20.4 -5.78,-37.37 -17.09,-50.84 -11.22,-13.69 -27.53,-20.53 -48.91,-20.53zm145.97 0c-18.38,0 -33.87,6.37 -46.37,18.97 -12.41,12.59 -18.57,30.74 -18.57,54.46 0,20.5 5.38,37.22 16,50.19 10.75,12.78 25.5,19.25 44.44,19.25 15.03,0 26.75,-3.63 35.16,-10.85l10.06 -14.56 0 2.35c0,5.56 -0.13,10.56 -0.31,14.84 -0.47,13.09 -4.28,23.25 -11.5,30.47 -7.03,7.31 -17.1,10.93 -30.1,10.93 -11.22,0 -20.09,-2.53 -26.65,-7.62 -6.53,-5.16 -10.16,-12 -11.03,-20.5l-0.28 -2.34 -21.78 0 0.18 2.62c2.94,29.78 22.75,44.72 59.57,44.72 19.34,0 34.56,-5.16 45.59,-15.59 11.06,-10.38 16.9,-25.41 17.59,-45.03 0.19,-4.97 0.28,-13.75 0.28,-26.35l0 -102.34 -21.56 0 0 18.66 -8.78 -13.28c-3.22,-2.72 -7.91,-4.88 -14.06,-6.44 -6.06,-1.66 -12.03,-2.53 -17.88,-2.53l0 -0.03 0 0zm230.62 0c-14.85,0 -26.88,4.03 -36.16,12.03 -8.97,8 -14.03,19.22 -15.03,33.59l22.57 0c1.56,-19.15 11.12,-28.72 28.59,-28.72 16.12,0 24.72,6.94 25.87,20.69 0.41,3.44 0.5,8.91 0.5,16.41l0 3.62 -8.5 0c-25.78,0 -44.62,3.91 -56.72,11.72 -11.99,7.72 -18.06,19.31 -18.06,34.84 0,12.13 4,21.6 12,28.41 8.1,6.84 18.35,10.25 30.97,10.25 14.12,0 25.28,-2.81 33.28,-8.47l7.31 -14.56 2.25 19.43 21.6 0c-1.69,-12.59 -2.57,-24.12 -2.57,-34.56l0 -50.97c0,-6.65 -0.18,-12.59 -0.68,-17.87 -2.32,-23.91 -18.07,-35.84 -47.25,-35.84l0.03 0 0 0zm152.59 0c-15.03,0 -26.75,3.62 -35.16,10.75l-9.94 14.56 0 -21.69 -21.68 0 0 185.81 21.68 0 0 -68.84 8.69 13.28c3.22,2.72 7.81,4.87 13.84,6.34 6.16,1.75 12.22,2.63 18.07,2.63 18.37,0 33.81,-6.35 46.18,-18.94 12.5,-12.69 18.85,-30.84 18.85,-54.56 0,-20.4 -5.35,-37.12 -16.1,-49.9 -10.75,-12.97 -25.5,-19.44 -44.43,-19.44l0 0 0 0zm287.65 0c-18.47,0 -33.6,6.56 -45.5,19.75 -11.81,13.06 -17.78,30.56 -17.78,52.21 0,22.97 5.56,40.53 16.59,52.72 11.16,12.13 25.78,18.19 43.84,18.19 14.56,0 27.25,-4.03 38,-12.13 10.81,-8 17.56,-19.71 20,-35.24l-22.56 0c-1.56,9.56 -5.47,16.99 -11.81,22.46 -6.13,5.28 -13.75,8 -22.53,8 -10.75,0 -19.53,-3.81 -26.38,-11.31 -6.84,-7.53 -10.84,-19.72 -11.81,-36.62l96.37 0c0.28,-3.22 0.47,-6.75 0.47,-10.44 0,-20.31 -4.97,-36.62 -15.03,-48.94 -10.06,-12.37 -24.03,-18.65 -41.87,-18.65l0 0 0 0zm-518.27 0.5c-6.53,0 -12.69,2.06 -18.53,6.15l-12.03 18.16 0 -21.19 -21.56 0 0 135.62 21.56 0 0 -77.31c0,-14.84 3.53,-25.87 10.75,-33.31 7.31,-7.31 17,-10.53 28.9,-9.66l0 -16.59c-2.34,-1.28 -5.37,-1.88 -9.09,-1.88l0 0 0 0.01zm656.01 0c-6.53,0 -12.69,2.06 -18.53,6.15l-12.12 18.16 0 -21.19 -21.57 0 0 135.62 21.57 0 0 -77.31c0,-14.84 3.62,-25.87 10.84,-33.31 7.34,-7.31 17,-10.53 28.81,-9.66l0 -16.59c-2.34,-1.28 -5.28,-1.88 -9,-1.88l0 0 0 0.01zm-1177 16.4c13.29,0 23.63,5.1 31.16,15.13 7.5,9.87 11.31,22.97 11.31,39.37 0,16.19 -3.81,29.38 -11.31,39.44 -7.53,10.06 -17.87,15.12 -31.16,15.12 -13.18,0 -23.53,-5.06 -31.06,-15.12 -7.59,-10.06 -11.31,-23.25 -11.31,-39.44 0,-16.4 3.72,-29.5 11.31,-39.37 7.53,-10.03 17.88,-15.13 31.06,-15.13zm222.43 0c13.16,0 23.5,5.1 31.04,15.13 7.53,9.87 11.34,22.97 11.34,39.37 0,16.19 -3.81,29.38 -11.34,39.44 -7.5,10.06 -17.88,15.12 -31.04,15.12 -13.28,0 -23.65,-5.06 -31.15,-15.12 -7.53,-10.06 -11.34,-23.25 -11.34,-39.44 0,-16.4 3.81,-29.5 11.34,-39.37 7.5,-10.03 17.87,-15.13 31.15,-15.13zm145.97 0c10.94,0 20.4,4 28.41,12 8.18,8.03 12.31,20.13 12.31,36.35l0 7.4c0,18.25 -3.91,31.75 -11.81,40.53 -7.94,8.5 -17.88,12.78 -30.1,12.78 -12.87,0 -22.84,-5.15 -29.87,-15.43 -6.94,-10.35 -10.34,-23.63 -10.34,-39.63 0,-17.18 3.9,-30.56 11.62,-39.93 7.63,-9.38 17.56,-14.07 29.78,-14.07l0 0 0 0zm379.99 0c12.87,0 22.75,5.19 29.59,15.63 7.03,10.25 10.53,23.34 10.53,39.43 0,17.19 -3.81,30.47 -11.5,39.85 -7.72,9.46 -17.68,14.15 -29.9,14.15 -10.82,0 -20.41,-4 -28.6,-12.09 -8,-8.03 -12,-20.13 -12,-36.34l0 -7.41c0,-18.28 3.91,-31.65 11.72,-40.12 7.91,-8.72 17.97,-13.1 30.16,-13.1l0 0 0 0zm290.37 0c21.59,0 33.4,14.75 35.65,44.25l-74.81 0c1.19,-14.15 5.28,-25 12.31,-32.72 7.13,-7.71 16.13,-11.53 26.85,-11.53l0 0zm-427.37 56.53c4.41,0 9,0.19 13.97,0.6l0 13.75c0,12.12 -2.94,21.5 -8.97,28.12 -5.87,6.75 -13.87,10.06 -24.12,10.06 -17.66,0 -26.56,-7.9 -26.56,-23.62 0,-19.22 15.25,-28.91 45.68,-28.91l0 0 0 0z"/>
 </g>
</svg>
