<?xml version="1.0" encoding="UTF-8"?>
<!DOCTYPE svg PUBLIC "-//W3C//DTD SVG 1.1//EN" "http://www.w3.org/Graphics/SVG/1.1/DTD/svg11.dtd">
<!-- Creator: CorelDRAW -->
<svg xmlns="http://www.w3.org/2000/svg" xml:space="preserve" width="222px" height="33px" version="1.1" style="shape-rendering:geometricPrecision; text-rendering:geometricPrecision; image-rendering:optimizeQuality; fill-rule:evenodd; clip-rule:evenodd"
viewBox="0 0 222 33"
 xmlns:xlink="http://www.w3.org/1999/xlink"
 xmlns:xodm="http://www.corel.com/coreldraw/odm/2003">
 <defs>
  <style type="text/css">
   <![CDATA[
    .fil0 {fill:black;fill-rule:nonzero}
   ]]>
  </style>
 </defs>
 <g id="Слой_x0020_1">
  <metadata id="CorelCorpID_0Corel-Layer"/>
  <path id="body1" class="fil0" d="M1 6.49l0 19.68 12.83 0 0 -2 -10.43 0 0 -17.68 -2.4 0zm16.07 0l0 19.68 2.41 0 0 -19.68 -2.41 0zm7.39 0l0 19.68 2.4 0 0 -6.39 1.85 -2.02 6.62 8.41 3.38 0 -8.24 -10.07 8.75 -9.61 -2.82 0 -9.54 10.47 0 -10.47 -2.4 0zm21.97 0l-6.93 19.68 2.57 0 2.27 -6.96 7.1 0 2.29 6.96 2.6 0 -6.65 -19.68 -3.25 0zm1.57 1.94l2.79 8.78 -5.78 0 2.99 -8.78z"/>
  <path id="body2" class="fil0" d="M78.66 6.59l0 19.4 2.21 0 0 -6.11c0,-2.22 0.36,-3.82 1.08,-4.82 0.72,-1 1.67,-1.51 2.85,-1.55 1,-0.02 1.74,0.24 2.24,0.76 0.52,0.51 0.81,1.2 0.88,2.07 0.03,0.47 0.05,1.14 0.05,1.99l0 7.66 2.21 0 0 -7.81c0,-1.12 -0.02,-1.92 -0.05,-2.39 -0.11,-1.24 -0.58,-2.23 -1.42,-2.96 -0.84,-0.73 -1.99,-1.1 -3.44,-1.1 -1.39,0 -2.57,0.38 -3.55,1.15l-0.85 1.6 0 -7.89 -2.21 0zm106.72 0l0 19.4 2.21 0 0 -6.11c0,-2.22 0.36,-3.82 1.08,-4.82 0.72,-1 1.67,-1.51 2.85,-1.55 1,-0.02 1.74,0.24 2.24,0.76 0.51,0.51 0.8,1.2 0.87,2.07 0.04,0.47 0.05,1.14 0.05,1.99l0 7.66 2.21 0 0 -7.81c0,-1.12 -0.01,-1.92 -0.05,-2.39 -0.1,-1.24 -0.57,-2.23 -1.41,-2.96 -0.84,-0.73 -1.99,-1.1 -3.44,-1.1 -1.39,0 -2.57,0.38 -3.55,1.15l-0.85 1.6 0 -7.89 -2.21 0zm-121.42 1.31l0 18.09 2.21 0 0 -7.39 3.29 0c1.01,0 1.78,-0.04 2.31,-0.11 1.34,-0.17 2.44,-0.71 3.29,-1.62 0.88,-0.93 1.32,-2.13 1.32,-3.62 0,-1.5 -0.42,-2.7 -1.24,-3.59 -0.8,-0.91 -1.93,-1.46 -3.37,-1.65 -0.53,-0.07 -1.3,-0.11 -2.31,-0.11l-5.5 0zm45.44 1.08l0 3.22 -1.82 0 0 1.73 1.82 0 0 8.1c0,0.91 0.01,1.49 0.03,1.73 0.07,0.86 0.32,1.48 0.74,1.86 0.45,0.39 1.1,0.58 1.96,0.58 0.72,0 1.34,-0.05 1.87,-0.13l0 -1.65c-0.87,0.1 -1.47,0.06 -1.8,-0.13 -0.32,-0.2 -0.51,-0.62 -0.56,-1.29 -0.02,-0.24 -0.03,-0.6 -0.03,-1.07l0 -8 2.55 0 0 -1.73 -2.55 0 0 -3.22 -2.21 0zm-43.23 0.81l3.5 0c0.9,0 1.56,0.04 1.98,0.13 1.57,0.37 2.36,1.48 2.36,3.33 0,1.85 -0.79,2.96 -2.36,3.33 -0.42,0.09 -1.08,0.13 -1.98,0.13l-3.5 0 0 -6.92zm33.36 1.94c-2.19,0 -3.87,0.7 -5.04,2.1 -1.14,1.38 -1.72,3.12 -1.72,5.21 0,2.1 0.58,3.85 1.72,5.25 1.17,1.38 2.85,2.07 5.04,2.07 2.2,0 3.87,-0.69 5.02,-2.07 1.16,-1.4 1.74,-3.15 1.74,-5.25 0,-2.09 -0.58,-3.83 -1.74,-5.21 -1.15,-1.4 -2.82,-2.1 -5.02,-2.1zm22.78 0c-2.2,0 -3.88,0.7 -5.04,2.1 -1.15,1.38 -1.72,3.12 -1.72,5.21 0,2.1 0.57,3.85 1.72,5.25 1.16,1.38 2.84,2.07 5.04,2.07 2.19,0 3.86,-0.69 5.01,-2.07 1.16,-1.4 1.75,-3.15 1.75,-5.25 0,-2.09 -0.59,-3.83 -1.75,-5.21 -1.15,-1.4 -2.82,-2.1 -5.01,-2.1zm14.95 0c-1.88,0 -3.47,0.65 -4.75,1.94 -1.27,1.29 -1.9,3.15 -1.9,5.58 0,2.1 0.55,3.81 1.64,5.14 1.1,1.31 2.61,1.97 4.55,1.97 1.54,0 2.74,-0.37 3.6,-1.11l1.03 -1.49 0 0.24c0,0.57 -0.01,1.08 -0.03,1.52 -0.05,1.34 -0.44,2.38 -1.18,3.12 -0.72,0.75 -1.75,1.12 -3.08,1.12 -1.15,0 -2.06,-0.26 -2.73,-0.78 -0.67,-0.53 -1.04,-1.23 -1.13,-2.1l-0.03 -0.24 -2.23 0 0.02 0.27c0.3,3.05 2.33,4.58 6.1,4.58 1.98,0 3.54,-0.53 4.67,-1.6 1.13,-1.06 1.73,-2.6 1.8,-4.61 0.02,-0.51 0.03,-1.41 0.03,-2.7l0 -10.48 -2.21 0 0 1.91 -0.9 -1.36c-0.33,-0.28 -0.81,-0.5 -1.44,-0.66 -0.62,-0.17 -1.23,-0.26 -1.83,-0.26zm23.62 0c-1.52,0 -2.75,0.41 -3.7,1.23 -0.92,0.82 -1.44,1.97 -1.54,3.44l2.31 0c0.16,-1.96 1.14,-2.94 2.93,-2.94 1.65,0 2.53,0.71 2.65,2.12 0.04,0.35 0.05,0.91 0.05,1.68l0 0.37 -0.87 0c-2.64,0 -4.57,0.4 -5.81,1.2 -1.23,0.79 -1.85,1.98 -1.85,3.57 0,1.24 0.41,2.21 1.23,2.91 0.83,0.7 1.88,1.05 3.17,1.05 1.45,0 2.59,-0.29 3.41,-0.87l0.75 -1.49 0.23 1.99 2.21 0c-0.17,-1.29 -0.26,-2.47 -0.26,-3.54l0 -5.22c0,-0.68 -0.02,-1.29 -0.07,-1.83 -0.24,-2.45 -1.85,-3.67 -4.84,-3.67zm15.63 0c-1.54,0 -2.74,0.37 -3.6,1.1l-1.02 1.49 0 -2.22 -2.22 0 0 19.03 2.22 0 0 -7.05 0.89 1.36c0.33,0.28 0.8,0.5 1.42,0.65 0.63,0.18 1.25,0.27 1.85,0.27 1.88,0 3.46,-0.65 4.73,-1.94 1.28,-1.3 1.93,-3.16 1.93,-5.59 0,-2.09 -0.55,-3.8 -1.65,-5.11 -1.1,-1.33 -2.61,-1.99 -4.55,-1.99zm29.46 0c-1.89,0 -3.44,0.67 -4.66,2.02 -1.21,1.34 -1.82,3.13 -1.82,5.35 0,2.35 0.57,4.15 1.7,5.4 1.14,1.24 2.64,1.86 4.49,1.86 1.49,0 2.79,-0.41 3.89,-1.24 1.11,-0.82 1.8,-2.02 2.05,-3.61l-2.31 0c-0.16,0.98 -0.56,1.74 -1.21,2.3 -0.63,0.54 -1.41,0.82 -2.31,0.82 -1.1,0 -2,-0.39 -2.7,-1.16 -0.7,-0.77 -1.11,-2.02 -1.21,-3.75l9.87 0c0.03,-0.33 0.05,-0.69 0.05,-1.07 0,-2.08 -0.51,-3.75 -1.54,-5.01 -1.03,-1.27 -2.46,-1.91 -4.29,-1.91zm-53.08 0.05c-0.67,0 -1.3,0.21 -1.9,0.63l-1.23 1.86 0 -2.17 -2.21 0 0 13.89 2.21 0 0 -7.92c0,-1.52 0.36,-2.65 1.1,-3.41 0.75,-0.75 1.74,-1.08 2.96,-0.99l0 -1.7c-0.24,-0.13 -0.55,-0.19 -0.93,-0.19zm67.19 0c-0.67,0 -1.3,0.21 -1.9,0.63l-1.24 1.86 0 -2.17 -2.21 0 0 13.89 2.21 0 0 -7.92c0,-1.52 0.37,-2.65 1.11,-3.41 0.75,-0.75 1.74,-1.08 2.95,-0.99l0 -1.7c-0.24,-0.13 -0.54,-0.19 -0.92,-0.19zm-120.55 1.68c1.36,0 2.42,0.52 3.19,1.55 0.77,1.01 1.16,2.35 1.16,4.03 0,1.66 -0.39,3.01 -1.16,4.04 -0.77,1.03 -1.83,1.55 -3.19,1.55 -1.35,0 -2.41,-0.52 -3.18,-1.55 -0.78,-1.03 -1.16,-2.38 -1.16,-4.04 0,-1.68 0.38,-3.02 1.16,-4.03 0.77,-1.03 1.83,-1.55 3.18,-1.55zm22.78 0c1.35,0 2.41,0.52 3.18,1.55 0.77,1.01 1.16,2.35 1.16,4.03 0,1.66 -0.39,3.01 -1.16,4.04 -0.77,1.03 -1.83,1.55 -3.18,1.55 -1.36,0 -2.42,-0.52 -3.19,-1.55 -0.77,-1.03 -1.16,-2.38 -1.16,-4.04 0,-1.68 0.39,-3.02 1.16,-4.03 0.77,-1.03 1.83,-1.55 3.19,-1.55zm14.95 0c1.12,0 2.09,0.41 2.91,1.23 0.84,0.82 1.26,2.06 1.26,3.72l0 0.76c0,1.87 -0.4,3.25 -1.21,4.15 -0.81,0.87 -1.83,1.31 -3.08,1.31 -1.32,0 -2.34,-0.53 -3.06,-1.58 -0.71,-1.06 -1.06,-2.42 -1.06,-4.06 0,-1.76 0.4,-3.13 1.19,-4.09 0.78,-0.96 1.8,-1.44 3.05,-1.44zm38.92 0c1.32,0 2.33,0.53 3.03,1.6 0.72,1.05 1.08,2.39 1.08,4.04 0,1.76 -0.39,3.12 -1.18,4.08 -0.79,0.97 -1.81,1.45 -3.06,1.45 -1.11,0 -2.09,-0.41 -2.93,-1.24 -0.82,-0.82 -1.23,-2.06 -1.23,-3.72l0 -0.76c0,-1.87 0.4,-3.24 1.2,-4.11 0.81,-0.89 1.84,-1.34 3.09,-1.34zm29.74 0c2.21,0 3.42,1.51 3.65,4.53l-7.66 0c0.12,-1.45 0.54,-2.56 1.26,-3.35 0.73,-0.79 1.65,-1.18 2.75,-1.18zm-43.77 5.79c0.45,0 0.92,0.02 1.43,0.06l0 1.41c0,1.24 -0.3,2.2 -0.92,2.88 -0.6,0.69 -1.42,1.03 -2.47,1.03 -1.81,0 -2.72,-0.81 -2.72,-2.42 0,-1.97 1.56,-2.96 4.68,-2.96z"/>
 </g>
</svg>
